<?xml version="1.0" encoding="UTF-8"?>
<svg id="Camada_2" data-name="Camada 2" xmlns="http://www.w3.org/2000/svg" viewBox="0 0 1315.04 354.27">
  <defs>
    <style>
      .cls-1, .cls-2 {
        fill: #fff;
      }

      .cls-2 {
        fill-rule: evenodd;
      }
    </style>
  </defs>
  <g id="Camada_1-2" data-name="Camada 1">
    <g>
      <path class="cls-2" d="M325.25,29.02C299.77,1.23,238.45,1.23,177.14,0,115.82,1.23,54.5,1.23,29.02,29.02,1.23,54.5,1.23,115.82,0,177.14c1.23,61.32,1.23,122.63,29.02,148.11,25.48,27.8,86.8,27.8,148.11,29.02,61.32-1.23,122.63-1.23,148.11-29.02,27.8-25.48,27.8-86.8,29.02-148.11-1.23-61.32-1.23-122.63-29.02-148.11ZM258.47,280.5l-91.47-91.47h68.8c1.54-5.74,2.34-11.76,2.34-17.95,0-13.18-3.61-25.48-9.95-36-12.22-20.42-34.58-34.09-60.13-34.09-12.56,0-24.34,3.3-34.51,9.07-.9.49-1.8,1.04-2.67,1.62-7.44,4.63-13.95,10.68-19.14,17.71-.65.86-1.25,1.69-1.83,2.55-.71,1.04-1.38,2.07-2,3.13-3.64,6.05-6.38,12.7-8.04,19.77-1.25,5.21-1.91,10.64-1.91,16.23s.65,11.01,1.91,16.23c.11.57.27,1.14.44,1.72,7.9,30.03,35.24,52.15,67.76,52.15,10.49,0,20.43-2.29,29.35-6.43l37.48,37.47h-64.91c-4.22,0-8.39-.27-12.49-.76-43.79-5.46-78.81-39.24-86.14-82.42-.44-2.51-.76-5.04-.99-7.6-.3-3.07-.42-6.15-.42-9.28s.12-6.21.42-9.28c.89-9.73,3.17-19.05,6.69-27.78,3.3-8.28,7.66-16.04,12.94-23.05.99-1.29,2-2.59,3.04-3.82,5.2-6.27,11.15-11.85,17.73-16.66,1.28-.98,2.62-1.91,3.95-2.81,15.85-10.51,34.85-16.64,55.28-16.64,42.17,0,78.23,26.07,92.93,62.98,4.61,11.45,7.11,23.97,7.11,37.06v78.68l29.69,29.68h-41.25Z"/>
      <path class="cls-1" d="M566,185.35c-4.3-5.2-10.33-8.82-18.01-10.83,6.75-2.25,12.03-5.82,15.89-10.74,3.84-4.92,5.76-10.61,5.76-17.13,0-9.93-3.54-17.84-10.64-23.7-7.1-5.86-16.64-8.79-28.59-8.79h-58.03v124.25h59.11c12.06,0,21.91-3.15,29.54-9.42,7.65-6.25,11.46-14.38,11.46-24.31,0-7.68-2.17-14.14-6.49-19.35ZM492.26,133.19h39.94c5.19,0,9.35,1.42,12.41,4.25,3.08,2.85,4.62,6.69,4.62,11.54,0,5.45-1.63,9.8-4.88,13.04-3.24,3.26-7.67,4.89-13.23,4.89h-38.86v-33.72ZM546.3,214.55c-3.6,3.24-8.24,4.88-13.93,4.88h-40.11v-34.08h39.76c5.81,0,10.52,1.57,14.2,4.7,3.67,3.15,5.51,6.89,5.51,11.98s-1.81,9.27-5.42,12.52Z"/>
      <path class="cls-1" d="M617.87,219.43h70.1v18.99h-89.99v-124.24h88.39v18.99h-68.51v32.13h61.41v18.64h-61.41v35.5h0Z"/>
      <path class="cls-1" d="M944.39,114.17h20.23v80.76c0,14.08-4.65,25.29-13.94,33.63-9.28,8.34-21.75,12.51-37.36,12.51s-28.08-4.17-37.36-12.51c-9.28-8.34-13.94-19.55-13.94-33.63v-80.76h20.23v80.41c0,8.28,2.81,14.88,8.44,19.78,5.63,4.92,13.18,7.37,22.63,7.37s17.01-2.45,22.63-7.37c5.63-4.92,8.44-11.5,8.44-19.78v-80.41Z"/>
      <path class="cls-1" d="M1013.31,219.43h70.1v18.99h-89.98v-124.24h88.39v18.99h-68.51v32.13h61.41v18.64h-61.41v35.5h0Z"/>
      <path class="cls-1" d="M1151.42,241.08c-15.97,0-28.7-3.5-38.17-10.46-9.47-6.96-14.67-16.73-15.61-29.28h20.94c.58,6.74,3.76,11.98,9.5,15.71,5.74,3.72,13.53,5.59,23.34,5.59,8.16,0,14.83-1.65,19.96-4.97,5.15-3.32,7.73-7.63,7.73-12.96,0-5.68-2.28-9.8-6.84-12.33-4.57-2.53-12.1-4.82-22.63-6.83-13.26-2.62-22.42-5.03-27.51-7.28-12.9-5.91-19.35-15.74-19.35-29.46,0-11.01,4.35-19.96,13.04-26.9,8.69-6.94,19.96-10.38,33.82-10.38s24.28,3.37,32.74,10.11c8.46,6.74,13.63,16.09,15.53,28.04h-20.95c-1.18-6.16-4.17-10.96-8.97-14.38-4.79-3.42-10.91-5.15-18.37-5.15-8.04,0-14.59,1.74-19.61,5.23-5.03,3.5-7.55,8.03-7.55,13.58,0,3.07.62,5.64,1.86,7.73,1.24,2.07,3.16,3.73,5.76,4.97,2.62,1.24,5.45,2.25,8.52,3.01,3.07.76,6.92,1.63,11.54,2.58,1.3.23,2.31.41,3.01.53,5.56,1.06,10.11,2.04,13.66,2.93,3.54.89,7.67,2.3,12.33,4.26,4.67,1.95,8.34,4.14,11.01,6.57,2.65,2.43,4.97,5.63,6.92,9.58,1.95,3.95,2.93,8.56,2.93,13.76,0,10.52-4.53,19.2-13.57,26-9.05,6.8-20.74,10.21-35.06,10.21h.01Z"/>
      <path class="cls-1" d="M1315.04,114.17v18.99h-42.06v105.25h-20.23v-105.23h-42.07v-19.01h104.36Z"/>
      <path class="cls-2" d="M852.43,244.12h-26.84l-59.53-59.53h44.77c.99-3.73,1.53-7.64,1.53-11.68,0-8.57-2.36-16.58-6.47-23.44-7.96-13.3-22.51-22.18-39.13-22.18-8.17,0-15.83,2.14-22.46,5.9-.58.31-1.17.68-1.73,1.05-4.85,3.01-9.09,6.96-12.47,11.53-.42.56-.82,1.1-1.18,1.66-.47.68-.89,1.35-1.29,2.04-2.37,3.94-4.16,8.27-5.23,12.86-.81,3.39-1.24,6.92-1.24,10.56s.42,7.17,1.24,10.56c.07.38.18.75.29,1.12,5.15,19.55,22.93,33.94,44.09,33.94,6.84,0,13.3-1.5,19.1-4.2l24.39,24.39h-42.24c-2.75,0-5.46-.18-8.13-.5-28.51-3.56-51.3-25.55-56.07-53.64-.29-1.63-.51-3.28-.64-4.95-.19-1.99-.27-3.99-.27-6.04s.08-4.05.27-6.04c.57-6.34,2.06-12.4,4.36-18.1,2.14-5.4,4.99-10.44,8.42-15,.64-.84,1.29-1.69,1.98-2.49,3.39-4.07,7.26-7.71,11.54-10.85.83-.64,1.7-1.24,2.57-1.83,10.32-6.84,22.69-10.82,35.98-10.82,27.44,0,50.91,16.96,60.47,40.99,3,7.45,4.63,15.6,4.63,24.12v51.21l19.32,19.31-.03.04Z"/>
    </g>
  </g>
</svg>