<?xml version="1.0" encoding="UTF-8"?>
<svg id="Camada_2" data-name="Camada 2" xmlns="http://www.w3.org/2000/svg" viewBox="0 0 354.27 354.27">
  <defs>
    <style>
      .cls-1 {
        fill: #fff;
        fill-rule: evenodd;
      }
    </style>
  </defs>
  <g id="Camada_1-2" data-name="Camada 1">
    <path class="cls-1" d="M325.25,29.02C299.77,1.23,238.45,1.23,177.14,0,115.82,1.23,54.5,1.23,29.02,29.02,1.23,54.5,1.23,115.82,0,177.14c1.23,61.32,1.23,122.63,29.02,148.11,25.48,27.8,86.8,27.8,148.11,29.02,61.32-1.23,122.63-1.23,148.11-29.02,27.8-25.48,27.8-86.8,29.02-148.11-1.23-61.32-1.23-122.63-29.02-148.11ZM258.47,280.5l-91.47-91.47h68.8c1.54-5.74,2.34-11.76,2.34-17.95,0-13.18-3.61-25.48-9.95-36-12.22-20.42-34.58-34.09-60.13-34.09-12.56,0-24.34,3.3-34.51,9.07-.9.49-1.8,1.04-2.67,1.62-7.44,4.63-13.95,10.68-19.14,17.71-.65.86-1.25,1.69-1.83,2.55-.71,1.04-1.38,2.07-2,3.13-3.64,6.05-6.38,12.7-8.04,19.77-1.25,5.21-1.91,10.64-1.91,16.23s.65,11.01,1.91,16.23c.11.57.27,1.14.44,1.72,7.9,30.03,35.24,52.15,67.76,52.15,10.49,0,20.43-2.29,29.35-6.43l37.48,37.47h-64.91c-4.22,0-8.39-.27-12.49-.76-43.79-5.46-78.81-39.24-86.14-82.42-.44-2.51-.76-5.04-.99-7.6-.3-3.07-.42-6.15-.42-9.28s.12-6.21.42-9.28c.89-9.73,3.17-19.05,6.69-27.78,3.3-8.28,7.66-16.04,12.94-23.05.99-1.29,2-2.59,3.04-3.82,5.2-6.27,11.15-11.85,17.73-16.66,1.28-.98,2.62-1.91,3.95-2.81,15.85-10.51,34.85-16.64,55.28-16.64,42.17,0,78.23,26.07,92.93,62.98,4.61,11.45,7.11,23.97,7.11,37.06v78.68l29.69,29.68h-41.25Z"/>
  </g>
</svg>